# xmcd CD database file
#
# Track frame offsets:
#	150
#	13987
#	31037
#	52775
#	72497
#	86997
#	116362
#	130755
#	153105
#	171665
#	212977
#
# Disc length: 3114 seconds
#
# Revision: 0
# Processed by: cddbd v1.5.1PL0 Copyright (c) Steve Scherf et al.
# Submitted via: CDex 1.51
#
DISCID=940c280b
DTITLE=Kurt Crandall - true story
DYEAR=2004
DGENRE=Blues
TTITLE0=But One Regret
TTITLE1=Marinara Mambo
TTITLE2=Sammy
TTITLE3=Quibble with a Nibble
TTITLE4=Eep Opp Ork Ah Ah
TTITLE5=Self Servin'  Woman
TTITLE6=Ella Roo Blues
TTITLE7=Bed has One Pillow
TTITLE8=Bumpity Bump
TTITLE9=My Little Machine
TTITLE10=Evans Shuffle
EXTD=YEAR: 2004
EXTT0=
EXTT1=
EXTT2=
EXTT3=
EXTT4=
EXTT5=
EXTT6=
EXTT7=
EXTT8=
EXTT9=
EXTT10=
PLAYORDER=
